<svg xmlns="http://www.w3.org/2000/svg" version="1.1" xmlns:xlink="http://www.w3.org/1999/xlink" xmlns:svgjs="http://svgjs.dev/svgjs" width="1000" height="333" viewBox="0 0 1000 333"><g transform="matrix(1,0,0,1,-0.6060606060606233,0.4362911666686955)"><svg viewBox="0 0 396 132" data-background-color="#6936f5" preserveAspectRatio="xMidYMid meet" height="333" width="1000" xmlns="http://www.w3.org/2000/svg" xmlns:xlink="http://www.w3.org/1999/xlink"><g id="tight-bounds" transform="matrix(1,0,0,1,0.2400000000000091,-0.17294424624705584)"><svg viewBox="0 0 395.52 132.3458884924941" height="132.3458884924941" width="395.52"><g><svg viewBox="0 0 658.6494355298967 220.39225513320156" height="132.3458884924941" width="395.52"><g transform="matrix(1,0,0,1,0,64.93826527151882)"><svg viewBox="0 0 395.52000000000004 90.51572459016393" height="90.51572459016393" width="395.52000000000004"><g id="textblocktransform"><svg viewBox="0 0 395.52000000000004 90.51572459016393" height="90.51572459016393" width="395.52000000000004" id="textblock"><g><svg viewBox="0 0 395.52000000000004 90.51572459016393" height="90.51572459016393" width="395.52000000000004"><g transform="matrix(1,0,0,1,0,0)"><svg width="395.52000000000004" viewBox="1.149999976158142 -34.900001525878906 152.49000549316406 34.900001525878906" height="90.51572459016393" data-palette-color="#ffffff"><g class="wordmark-text-0" data-fill-palette-color="primary" id="text-0"><path d="M30.9 0L26.5 0 23-10.3 8.9-10.3 5.4 0 1.15 0 13.35-34.9 18.7-34.9 30.9 0ZM21.95-14L16.05-31 15.8-31 9.9-14 21.95-14ZM55.75 0L36.7 0 36.7-34.9 40.9-34.9 40.9-3.7 55.75-3.7 55.75 0ZM65.95 0L61.75 0 61.75-34.9 75.65-34.9Q80.35-34.9 82.87-32.23 85.4-29.55 85.4-24.9L85.4-24.9Q85.4-20.25 82.87-17.57 80.35-14.9 75.65-14.9L75.65-14.9 65.95-14.9 65.95 0ZM65.95-31.2L65.95-18.6 75.65-18.6Q78.15-18.6 79.52-19.9 80.9-21.2 80.9-23.6L80.9-23.6 80.9-26.2Q80.9-28.6 79.52-29.9 78.15-31.2 75.65-31.2L75.65-31.2 65.95-31.2ZM113.89 0L113.89-15.8 96.24-15.8 96.24 0 92.04 0 92.04-34.9 96.24-34.9 96.24-19.5 113.89-19.5 113.89-34.9 118.09-34.9 118.09 0 113.89 0ZM153.64 0L149.24 0 145.74-10.3 131.64-10.3 128.14 0 123.89 0 136.09-34.9 141.44-34.9 153.64 0ZM144.69-14L138.79-31 138.54-31 132.64-14 144.69-14Z" fill="#ffffff" data-fill-palette-color="primary"></path></g></svg></g></svg></g></svg></g></svg></g><g transform="matrix(1,0,0,1,438.2571803966951,0)"><svg viewBox="0 0 220.39225513320156 220.39225513320156" height="220.39225513320156" width="220.39225513320156"><g><svg></svg></g><g id="icon-0"><svg viewBox="0 0 220.39225513320156 220.39225513320156" height="220.39225513320156" width="220.39225513320156"><g><path d="M0 110.196c0-60.86 49.336-110.196 110.196-110.196 60.86 0 110.196 49.336 110.196 110.196 0 60.86-49.336 110.196-110.196 110.196-60.86 0-110.196-49.336-110.196-110.196zM110.196 212.229c56.351 0 102.033-45.682 102.033-102.033 0-56.351-45.682-102.033-102.033-102.033-56.351 0-102.033 45.682-102.033 102.033 0 56.351 45.682 102.033 102.033 102.033z" data-fill-palette-color="accent" fill="#ffffff" stroke="transparent"></path></g><g transform="matrix(1,0,0,1,46.42583136703204,71.0058346809025)"><svg viewBox="0 0 127.54059239913748 78.38058577139658" height="78.38058577139658" width="127.54059239913748"><g><svg xmlns="http://www.w3.org/2000/svg" data-name="Layer 1" viewBox="2.430551767349243 20.791906356811523 95.1390609741211 58.46809387207031" x="0" y="0" height="78.38058577139658" width="127.54059239913748" class="icon-s-0" data-fill-palette-color="accent" id="s-0"><path d="M62.78 23l32 55.42 1.3-2.26h-64l1.3 2.26L65.37 23a1.5 1.5 0 0 0-2.59-1.51L30.79 77a1.51 1.51 0 0 0 1.3 2.26h64A1.51 1.51 0 0 0 97.37 77l-32-55.42A1.5 1.5 0 0 0 62.78 23Z" fill="#ffffff" data-fill-palette-color="accent"></path><path d="M34.63 23l32 55.42 1.3-2.26h-64l1.3 2.26L37.22 23a1.5 1.5 0 0 0-2.59-1.51L2.63 77a1.51 1.51 0 0 0 1.3 2.26h64A1.51 1.51 0 0 0 69.21 77l-32-55.42A1.5 1.5 0 0 0 34.63 23Z" fill="#ffffff" data-fill-palette-color="accent"></path></svg></g></svg></g></svg></g></svg></g></svg></g><defs></defs></svg><rect width="395.52" height="132.3458884924941" fill="none" stroke="none" visibility="hidden"></rect></g></svg></g></svg>